<svg id="Layer_2" data-name="Layer 2" xmlns="http://www.w3.org/2000/svg" viewBox="0 0 205.16 73.89"><defs><style>.cls-1{fill:none;}.cls-2{fill:#d2d2d1;}</style></defs><title>logo</title><path class="cls-1" d="M348,234.71c.18-.82.33-1.65.44-2.51a19.37,19.37,0,0,0,.16-2.49,12.83,12.83,0,0,0-.24-2.52,6,6,0,0,0-.84-2.08,4.36,4.36,0,0,0-1.6-1.4,5.34,5.34,0,0,0-2.49-.52,8.9,8.9,0,0,0-4.26,1.14,15.24,15.24,0,0,0-4,3.22,24.56,24.56,0,0,0-3.43,5,31.77,31.77,0,0,0-1.84,4.22,22.31,22.31,0,0,1,7.38-1.2,21.33,21.33,0,0,1,9.9,2.26l.22-.74C347.6,236.31,347.79,235.52,348,234.71Z" transform="translate(-147.42 -213.05)"/><path class="cls-1" d="M284.59,230.23a15.44,15.44,0,0,0,.18-2.2,5.73,5.73,0,0,0-.85-3.34,3,3,0,0,0-2.67-1.23,6.34,6.34,0,0,0-3,.84,15.33,15.33,0,0,0-3.09,2.27,28.25,28.25,0,0,0-3,3.33,46.6,46.6,0,0,0-2.79,4c-.33.53-.64,1.08-.95,1.62h6.32v.52a24.54,24.54,0,0,1,5.37-.55,18.71,18.71,0,0,1,3.22.29c.31-1,.57-2,.79-2.94S284.47,231.06,284.59,230.23Z" transform="translate(-147.42 -213.05)"/><path class="cls-1" d="M163.25,231.14c-.25-1.63-.45-3-.57-4.1a24,24,0,0,1-.2-2.67v-.58l-8.41,12.28a20.32,20.32,0,0,1,8.09-.23v-.3h1.7c-.06-.56-.13-1.15-.22-1.78S163.4,232.12,163.25,231.14Z" transform="translate(-147.42 -213.05)"/><path class="cls-2" d="M162.48,223.79v.58a24,24,0,0,0,.2,2.67c.12,1.1.32,2.47.57,4.1.15,1,.28,1.85.39,2.62s.16,1.22.22,1.78h3.2c-.17-.7-.36-1.41-.59-2.14l-1.17-3.83c-.3-1-.53-1.85-.7-2.53s-.28-1.24-.34-1.68a8,8,0,0,1-.1-1.27,5.6,5.6,0,0,1,.11-1.12,3.15,3.15,0,0,1,.39-1,5.15,5.15,0,0,1,.7-.93,10.54,10.54,0,0,1,1.06-1,3.94,3.94,0,0,0,.77-.83,1.5,1.5,0,0,0,.22-.82,1.33,1.33,0,0,0-.55-1.08,2.17,2.17,0,0,0-1.38-.44,2.14,2.14,0,0,0-1.79,1.35,10.44,10.44,0,0,0-1,3.58l-10.11,14.7c.5-.17,1-.31,1.53-.44Z" transform="translate(-147.42 -213.05)"/><path class="cls-2" d="M180.8,237.46c.19-.53.36-1.07.57-1.6a33.21,33.21,0,0,1,2.52-4.94,25.28,25.28,0,0,1,3.09-4,14.74,14.74,0,0,1,3.38-2.71,7,7,0,0,1,3.46-1,5.47,5.47,0,0,1,1.28.15,4.42,4.42,0,0,1,1.08.41,2.59,2.59,0,0,1,.75.61,1.12,1.12,0,0,1,.27.7q0,.36-.24.36l-.11,0-.2-.07a1.31,1.31,0,0,0-.52-.11,1.57,1.57,0,0,0-1.24.55,2.17,2.17,0,0,0-.47,1.44,1.86,1.86,0,0,0,2,2,2.37,2.37,0,0,0,1.81-.72,2.7,2.7,0,0,0,.67-1.93,3.82,3.82,0,0,0-.33-1.55,4.45,4.45,0,0,0-1-1.39,6.09,6.09,0,0,0-4.49-1.55,12.75,12.75,0,0,0-5.52,1.3,18.41,18.41,0,0,0-5,3.58,24.91,24.91,0,0,0-4.13,5.42,28.47,28.47,0,0,0-2.79,6.83c-.16.62-.3,1.24-.41,1.85.11-.1.21-.21.33-.31A20.4,20.4,0,0,1,180.8,237.46Z" transform="translate(-147.42 -213.05)"/><path class="cls-2" d="M217.56,230.92a39,39,0,0,1,3.7-4.65,12.28,12.28,0,0,1,3-2.38,5.23,5.23,0,0,1,2.39-.68,2.51,2.51,0,0,1,1.64.46,1.22,1.22,0,0,1,.57.89c0,.26-.08.39-.22.39a.56.56,0,0,1-.15,0,.49.49,0,0,1-.16-.1,2.63,2.63,0,0,0-.57-.05,1.67,1.67,0,0,0-.86.22,2.1,2.1,0,0,0-.66.56,2.67,2.67,0,0,0-.43.8,2.82,2.82,0,0,0-.15.89,2.13,2.13,0,0,0,.21,1,2.24,2.24,0,0,0,1.29,1.13,2.91,2.91,0,0,0,.87.13,2.27,2.27,0,0,0,1.1-.27,2.61,2.61,0,0,0,.84-.75,3.36,3.36,0,0,0,.53-1.11,5.51,5.51,0,0,0,.17-1.36,3.86,3.86,0,0,0-1-2.81,3.76,3.76,0,0,0-2.85-1.08,6.21,6.21,0,0,0-2.75.69,11.57,11.57,0,0,0-3,2.3,34.9,34.9,0,0,0-3.47,4.24q-1.82,2.55-4,6.26h1.05C215.66,233.79,216.65,232.23,217.56,230.92Z" transform="translate(-147.42 -213.05)"/><polygon class="cls-2" points="70.79 9.55 66.71 9.55 61.99 22.52 66.06 22.52 70.79 9.55"/><path class="cls-2" d="M246.56,217.65a2.32,2.32,0,0,0,.92-.18,2.41,2.41,0,0,0,.75-.48,2.09,2.09,0,0,0,.49-.73,2.25,2.25,0,0,0,.18-.89,2.22,2.22,0,0,0-.67-1.64,2.24,2.24,0,0,0-1.64-.68,2.21,2.21,0,0,0-1.64.69,2.27,2.27,0,0,0-.67,1.65,2.15,2.15,0,0,0,.66,1.61A2.19,2.19,0,0,0,246.56,217.65Z" transform="translate(-147.42 -213.05)"/><path class="cls-2" d="M269.33,234a46.6,46.6,0,0,1,2.79-4,28.25,28.25,0,0,1,3-3.33,15.33,15.33,0,0,1,3.09-2.27,6.34,6.34,0,0,1,3-.84,3,3,0,0,1,2.67,1.23,5.73,5.73,0,0,1,.85,3.34,15.44,15.44,0,0,1-.18,2.2c-.12.83-.29,1.72-.51,2.66s-.48,1.92-.79,2.94a20.55,20.55,0,0,1,3.23.85c.35.12.69.27,1,.41.25-.92.47-1.84.63-2.77a23.94,23.94,0,0,0,.37-4,14.43,14.43,0,0,0-.35-3.24,7.68,7.68,0,0,0-1.13-2.6,5.54,5.54,0,0,0-2-1.73,6.17,6.17,0,0,0-2.89-.64,11,11,0,0,0-7.09,2.94,34.85,34.85,0,0,0-7,8.82l4.43-12.14h-4.07l-5.06,13.87h5C268.69,235,269,234.48,269.33,234Z" transform="translate(-147.42 -213.05)"/><path class="cls-2" d="M305.18,224.79h1.31l.39-1.08h8.67v-1.1h-8.26l2.62-7.22h-4.08l-2.61,7.22h-8v1.1h7.62l-.75,2.06a23.76,23.76,0,0,0,2.67-.79Z" transform="translate(-147.42 -213.05)"/><path class="cls-2" d="M331.73,232.52a24.56,24.56,0,0,1,3.43-5,15.24,15.24,0,0,1,4-3.22,8.9,8.9,0,0,1,4.26-1.14,5.34,5.34,0,0,1,2.49.52,4.36,4.36,0,0,1,1.6,1.4,6,6,0,0,1,.84,2.08,12.83,12.83,0,0,1,.24,2.52,19.37,19.37,0,0,1-.16,2.49c-.11.86-.26,1.69-.44,2.51s-.38,1.6-.59,2.35l-.22.74a20.3,20.3,0,0,1,2.22,1.36,31.13,31.13,0,0,0,.86-3.36,21.48,21.48,0,0,0,.4-4.13,16,16,0,0,0-.41-3.64,8.58,8.58,0,0,0-1.38-3.05,6.71,6.71,0,0,0-2.55-2.11,8.72,8.72,0,0,0-3.89-.79,13.59,13.59,0,0,0-5.69,1.3A19.15,19.15,0,0,0,331.5,227a25.14,25.14,0,0,0-4.27,5.44,26.28,26.28,0,0,0-2.82,6.83l-.12.51a19.32,19.32,0,0,1,5.6-3A31.77,31.77,0,0,1,331.73,232.52Z" transform="translate(-147.42 -213.05)"/><path class="cls-1" d="M147.53,261.72h2.7q0,2.08,2.83,4.26a11.33,11.33,0,0,0,7.16,2.19q4.34,0,5.51-2.43a3.57,3.57,0,0,0,.32-1.47c0-.94-.67-1.81-2-2.6a39.22,39.22,0,0,0-6.59-2.77,19.55,19.55,0,0,1-7.22-4.08,8.09,8.09,0,0,1-2.64-6.1,6.9,6.9,0,0,1,3.34-5.89,13.3,13.3,0,0,1,7.72-2.29,10.82,10.82,0,0,1,7,2.17A2.22,2.22,0,0,0,167,241.4a1.89,1.89,0,0,0,.17-.86h2.23v8.2h-2.58a6.46,6.46,0,0,0-2.65-4.29,8.49,8.49,0,0,0-5-1.54,7.73,7.73,0,0,0-4.47,1.09,3.16,3.16,0,0,0-1.57,2.64,3.57,3.57,0,0,0,1.8,2.84,19.66,19.66,0,0,0,5.1,2.4c2.2.75,3.92,1.4,5.17,2q6,2.79,6,8.09t-6.15,7.7a13.52,13.52,0,0,1-4.9.93,14.4,14.4,0,0,1-8.82-2.7,3.71,3.71,0,0,0-1.05,2.67h-2.81Zm43-21.18a16.38,16.38,0,0,1,7.49,1.74q3.43,1.75,3.44,4.93a3.71,3.71,0,0,1-1.11,2.78,3.38,3.38,0,0,1-2.37,1.08,5,5,0,0,1-3.23-.92,3,3,0,0,1-1.14-2.49,3.55,3.55,0,0,1,2.14-3.52,9.3,9.3,0,0,0-5-1.34q-8.44,0-8.44,12.63,0,8.9,5.1,11.48a8.67,8.67,0,0,0,4,.85,11.74,11.74,0,0,0,8.62-3.24l1.09,1v.85c-2.5,2.81-6.2,4.24-11.11,4.24a18,18,0,0,1-5.77-1,15.15,15.15,0,0,1-5.25-3,14.14,14.14,0,0,1-4.71-11.11q0-6.93,4.61-10.93A17.26,17.26,0,0,1,190.54,240.54Zm27.57,0v4.22a15,15,0,0,1,10.2-4.25,4.59,4.59,0,0,1,3.1,1.17,3.79,3.79,0,0,1,1.35,3,4,4,0,0,1-1.14,3,3.79,3.79,0,0,1-2.79,1.14,3.59,3.59,0,0,1-2.76-1.22,4.22,4.22,0,0,1-1.13-3,4.91,4.91,0,0,1,.23-1.49,15.38,15.38,0,0,0-7.06,4.71v20.46h6.42v2.26H206.07v-2.26h4.37V242.85H206v-2.28ZM250,228.94a3.78,3.78,0,0,1,.32,1.58,3.94,3.94,0,0,1-1.17,2.9,3.87,3.87,0,0,1-2.84,1.17,4,4,0,0,1-2.87-1.15,3.42,3.42,0,0,1-1.2-2.45,4.51,4.51,0,0,1,1.17-3.34,3.91,3.91,0,0,1,2.87-1.17A3.71,3.71,0,0,1,250,228.94Zm19.66,11.63v3.8q3.41-3.83,10.37-3.83a14.93,14.93,0,0,1,4.82.86,11.57,11.57,0,0,1,4.38,2.71q4.11,4,4.1,11.16t-4.25,11.23a14.43,14.43,0,0,1-10.37,4.07,16.34,16.34,0,0,1-7.23-1.61,10,10,0,0,1-1.82-1.11v16.81H275V287H257.69v-2.29h4.39V243.38H257.4v-2.81Zm30.24,0v-9.52a19.91,19.91,0,0,0,6.5-1.38,6.65,6.65,0,0,0,1.26-.56v11.46h9.64v2.28H307.7v20.21a5.33,5.33,0,0,0,1.13,3.8,4,4,0,0,0,3,1.16,7,7,0,0,0,5.27-2.53l1.56,1.34a10.25,10.25,0,0,1-5.75,3.45,10.87,10.87,0,0,1-2.52.29q-10.45,0-10.45-9.54V242.85h-3.55v-2.28Zm37.33,0a15.26,15.26,0,0,1,11,4.12,14.28,14.28,0,0,1,4.32,10.82,14.57,14.57,0,0,1-4.29,10.9,15.1,15.1,0,0,1-11,4.19,15.42,15.42,0,0,1-11.09-4.19,14.39,14.39,0,0,1-4.38-10.88,14.16,14.16,0,0,1,4.4-10.82A15.46,15.46,0,0,1,337.27,240.54Zm-99.56,27.71h4.74v-25.4h-4.33v-2.28h12.1v27.68H255v2.29H237.71Z" transform="translate(-147.42 -213.05)"/><path d="M150.23,270.54a3.71,3.71,0,0,1,1.05-2.67,14.4,14.4,0,0,0,8.82,2.7,13.52,13.52,0,0,0,4.9-.93q6.15-2.4,6.15-7.7t-6-8.09c-1.25-.57-3-1.22-5.17-2a19.66,19.66,0,0,1-5.1-2.4,3.57,3.57,0,0,1-1.8-2.84,3.16,3.16,0,0,1,1.57-2.64,7.73,7.73,0,0,1,4.47-1.09,8.49,8.49,0,0,1,5,1.54,6.46,6.46,0,0,1,2.65,4.29h2.58v-8.2h-2.23a1.89,1.89,0,0,1-.17.86,2.22,2.22,0,0,1-1.29,1.31,10.82,10.82,0,0,0-7-2.17,13.3,13.3,0,0,0-7.72,2.29,6.9,6.9,0,0,0-3.34,5.89,8.09,8.09,0,0,0,2.64,6.1,19.55,19.55,0,0,0,7.22,4.08,39.22,39.22,0,0,1,6.59,2.77c1.34.79,2,1.66,2,2.6a3.57,3.57,0,0,1-.32,1.47q-1.17,2.43-5.51,2.43a11.33,11.33,0,0,1-7.16-2.19q-2.84-2.18-2.83-4.26h-2.7l-.11,8.82Z" transform="translate(-147.42 -213.05)"/><path d="M174.23,255.46a14.14,14.14,0,0,0,4.71,11.11,15.15,15.15,0,0,0,5.25,3,18,18,0,0,0,5.77,1c4.91,0,8.61-1.43,11.11-4.24v-.85l-1.09-1a11.74,11.74,0,0,1-8.62,3.24,8.67,8.67,0,0,1-4-.85q-5.1-2.58-5.1-11.48,0-12.63,8.44-12.63a9.3,9.3,0,0,1,5,1.34,3.55,3.55,0,0,0-2.14,3.52,3,3,0,0,0,1.14,2.49,5,5,0,0,0,3.23.92,3.38,3.38,0,0,0,2.37-1.08,3.71,3.71,0,0,0,1.11-2.78q0-3.18-3.44-4.93a16.38,16.38,0,0,0-7.49-1.74,17.26,17.26,0,0,0-11.7,4Q174.22,248.53,174.23,255.46Z" transform="translate(-147.42 -213.05)"/><path d="M206,240.57v2.28h4.4v25.43h-4.37v2.26h18.46v-2.26h-6.42V247.82a15.38,15.38,0,0,1,7.06-4.71,4.91,4.91,0,0,0-.23,1.49,4.22,4.22,0,0,0,1.13,3,3.59,3.59,0,0,0,2.76,1.22,3.79,3.79,0,0,0,2.79-1.14,4,4,0,0,0,1.14-3,3.79,3.79,0,0,0-1.35-3,4.59,4.59,0,0,0-3.1-1.17,15,15,0,0,0-10.2,4.25v-4.22Z" transform="translate(-147.42 -213.05)"/><path d="M243.45,227.65a4.51,4.51,0,0,0-1.17,3.34,3.42,3.42,0,0,0,1.2,2.45,4,4,0,0,0,2.87,1.15,3.87,3.87,0,0,0,2.84-1.17,3.94,3.94,0,0,0,1.17-2.9,3.78,3.78,0,0,0-.32-1.58,3.71,3.71,0,0,0-3.72-2.46A3.91,3.91,0,0,0,243.45,227.65Z" transform="translate(-147.42 -213.05)"/><polygon points="107.55 55.2 102.8 55.2 102.8 27.52 90.7 27.52 90.7 29.8 95.04 29.8 95.04 55.2 90.29 55.2 90.29 57.48 107.55 57.48 107.55 55.2"/><path d="M257.4,240.57v2.81h4.68v41.28h-4.39V287H275v-2.29h-5.3V267.85a10,10,0,0,0,1.82,1.11,16.34,16.34,0,0,0,7.23,1.61,14.43,14.43,0,0,0,10.37-4.07q4.26-4.06,4.25-11.23t-4.1-11.16a11.57,11.57,0,0,0-4.38-2.71,14.93,14.93,0,0,0-4.82-.86q-7,0-10.37,3.83v-3.8Zm20,2.81a7.18,7.18,0,0,1,3.66.84q4.13,2.39,4.13,11.52,0,12.31-7.65,12.31a9.87,9.87,0,0,1-2-.22,10.76,10.76,0,0,1-5.77-3V247.75a10.25,10.25,0,0,1,3.38-3.17A8.45,8.45,0,0,1,277.38,243.38Z" transform="translate(-147.42 -213.05)"/><polygon points="162.74 11.71 162.73 11.72 162.74 11.72 162.74 11.71"/><path d="M296.39,242.85h3.55V261q0,9.54,10.45,9.54a10.87,10.87,0,0,0,2.52-.29,10.25,10.25,0,0,0,5.75-3.45l-1.56-1.34a7,7,0,0,1-5.27,2.53,4,4,0,0,1-3-1.16,5.33,5.33,0,0,1-1.13-3.8V242.85h9.64v-2.28H307.7V229.11a6.65,6.65,0,0,1-1.26.56,19.91,19.91,0,0,1-6.5,1.38v9.52h-3.55Z" transform="translate(-147.42 -213.05)"/><path d="M321.82,255.5a14.39,14.39,0,0,0,4.38,10.88,15.42,15.42,0,0,0,11.09,4.19,15.1,15.1,0,0,0,11-4.19,14.57,14.57,0,0,0,4.29-10.9,14.28,14.28,0,0,0-4.32-10.82,15.26,15.26,0,0,0-11-4.12,15.46,15.46,0,0,0-11,4.14A14.16,14.16,0,0,0,321.82,255.5ZM337.2,243a6,6,0,0,1,5.83,3.55q1.41,3,1.41,8.89a38.55,38.55,0,0,1-.3,5q-1,7.74-6.94,7.74a6,6,0,0,1-5.83-3.69c-.94-2-1.4-5-1.4-9a38.13,38.13,0,0,1,.29-4.95Q331.28,243,337.2,243Z" transform="translate(-147.42 -213.05)"/></svg>